<?xml version="1.0" standalone="no"?>
<!DOCTYPE svg PUBLIC "-//W3C//DTD SVG 20010904//EN"
 "http://www.w3.org/TR/2001/REC-SVG-20010904/DTD/svg10.dtd">
<svg version="1.0" xmlns="http://www.w3.org/2000/svg"
 width="273.000000pt" height="138.000000pt" viewBox="0 0 273.000000 138.000000"
 preserveAspectRatio="xMidYMid meet">
<metadata>
Created by potrace 1.16, written by Peter Selinger 2001-2019
</metadata>
<g transform="translate(0.000000,138.000000) scale(0.100000,-0.100000)"
fill="#000000" stroke="none">
<path d="M0 690 l0 -690 1365 0 1365 0 0 690 0 690 -1365 0 -1365 0 0 -690z
m448 595 c29 -9 68 -29 86 -46 40 -34 76 -103 76 -142 0 -26 -2 -27 -54 -27
-53 0 -55 1 -66 35 -18 55 -62 85 -124 85 -94 0 -136 -55 -136 -179 0 -77 11
-115 43 -149 62 -67 197 -37 214 48 5 29 7 30 64 30 64 0 65 -1 48 -61 -50
-165 -297 -215 -418 -84 -94 102 -96 314 -4 416 73 81 164 105 271 74z m339
-105 c32 -60 61 -110 65 -110 4 0 32 50 64 110 l57 110 59 0 c32 0 58 -3 58
-6 0 -4 -40 -80 -90 -170 l-90 -163 0 -111 0 -110 -60 0 -60 0 0 113 0 114
-90 162 c-49 90 -90 165 -90 167 0 2 27 4 60 4 l59 0 58 -110z m670 95 c113
-33 154 -144 83 -220 -19 -21 -19 -21 9 -38 35 -20 61 -73 61 -122 0 -57 -27
-102 -79 -133 -44 -26 -53 -27 -208 -30 l-163 -4 0 281 0 281 123 0 c81 0 141
-5 174 -15z m643 -40 l0 -55 -150 0 -150 0 0 -55 0 -54 113 -3 112 -3 3 -52 3
-53 -115 0 -116 0 0 -65 0 -65 150 0 150 0 0 -50 0 -50 -205 0 -205 0 0 280 0
280 205 0 205 0 0 -55z m407 40 c57 -17 94 -53 113 -110 24 -72 -10 -169 -70
-200 -16 -8 -30 -18 -30 -21 0 -3 22 -42 48 -87 84 -141 82 -127 10 -127 l-63
0 -58 100 -58 100 -49 0 -50 0 0 -100 0 -100 -60 0 -60 0 0 273 c0 151 3 277
7 280 13 14 268 7 320 -8z m-2042 -644 c48 -22 69 -44 90 -94 32 -76 7 -171
-58 -221 -37 -29 -114 -46 -204 -46 l-53 0 0 -90 0 -90 -55 0 -55 0 0 280 0
280 148 0 c121 0 154 -4 187 -19z m645 -158 c-1 -195 -9 -249 -46 -305 -37
-58 -94 -83 -184 -82 -91 0 -148 26 -184 82 -35 52 -45 109 -46 245 l0 117 55
0 55 0 1 -42 c0 -24 4 -90 8 -147 7 -96 10 -106 35 -128 38 -33 114 -32 153 1
l28 24 3 206 3 206 60 0 59 0 0 -177z m308 0 l122 -176 0 176 0 177 55 0 55 0
0 -280 0 -280 -48 0 -48 0 -125 177 -124 178 -3 -178 -2 -178 -53 3 -52 3 -3
278 -2 277 52 -1 53 0 123 -176z m432 65 l1 -113 107 113 107 113 67 -3 67 -3
-99 -108 c-55 -59 -100 -109 -100 -112 0 -3 45 -73 101 -156 55 -82 103 -157
106 -165 4 -11 -7 -14 -56 -14 l-62 0 -75 118 c-42 64 -80 121 -85 126 -5 6
-23 -6 -43 -30 -34 -38 -35 -41 -36 -126 l0 -88 -55 0 -55 0 0 280 0 280 55 0
55 0 0 -112z"/>
<path d="M1280 1130 l0 -62 76 4 c79 4 104 18 104 58 0 39 -25 53 -103 58
l-77 5 0 -63z"/>
<path d="M1280 900 l0 -70 76 0 c104 0 134 17 134 77 0 49 -28 63 -127 63
l-83 0 0 -70z"/>
<path d="M2300 1110 l0 -70 85 0 c99 0 125 15 125 74 0 52 -27 66 -127 66
l-83 0 0 -70z"/>
<path d="M240 466 l0 -86 79 0 c98 0 131 20 131 80 0 66 -23 83 -123 88 l-87
5 0 -87z"/>
</g>
</svg>
